<svg xmlns="http://www.w3.org/2000/svg" viewBox="0 0 2034.54 510.9"><defs><style>.cls-1{fill:#3d63aa;}.cls-2{fill:#00dbdd;}.cls-3{fill:#e16a64;}.cls-4{font-size:53.19px;font-family:WorkSans-Regular, Work Sans;letter-spacing:-0.03em;}.cls-5{letter-spacing:-0.05em;}.cls-6{letter-spacing:-0.04em;}.cls-7{letter-spacing:-0.05em;}.cls-8{letter-spacing:-0.04em;}.cls-9{letter-spacing:-0.05em;}.cls-10{letter-spacing:-0.05em;}.cls-11{letter-spacing:-0.04em;}.cls-12{letter-spacing:-0.03em;}.cls-13{letter-spacing:-0.03em;}.cls-14{letter-spacing:-0.03em;}</style></defs><g id="V1"><path class="cls-1" d="M222.13.14C98.73,4.36,0,105.72,0,230.15A229,229,0,0,0,33.63,350a9.14,9.14,0,0,0,10.57,4,78.42,78.42,0,0,1,23.91-3.72c46.23,0,83.71,40.18,83.71,89.74V440a9.18,9.18,0,0,0,6.29,8.75,229.93,229.93,0,0,0,72,11.49c124.42,0,225.79-98.73,230-222.13C464.69,105.27,355-4.41,222.13.14ZM193.47,358.87C129.71,358.87,78,301.23,78,230.15s51.7-128.73,115.46-128.73,115.46,57.63,115.46,128.73S257.24,358.87,193.47,358.87Z"/><circle class="cls-2" cx="290.8" cy="446.34" r="64.56"/><circle class="cls-2" cx="433.56" cy="363.23" r="64.56"/><circle class="cls-3" cx="403.86" cy="476.05" r="29.71"/><path class="cls-1" d="M654.15,110.38q19.08,0,32.93,6.73a51.6,51.6,0,0,1,21.64,19.08q7.8,12.38,7.8,29.85,0,17.21-7.8,29.71A51.3,51.3,0,0,1,687.08,215q-13.85,6.72-32.93,6.72H620.62a6,6,0,0,0-6,6v54.14a6,6,0,0,1-6,6H591.86a6,6,0,0,1-6-6V116.38a6,6,0,0,1,6-6ZM649.57,197q19.09,0,28.1-7.94t9-23q0-15.33-9-23.26t-28.1-7.93h-29a6,6,0,0,0-6,6V191a6,6,0,0,0,6,6Z"/><path class="cls-1" d="M743.14,281.83V159.4a6,6,0,0,1,6-6h13.09a6,6,0,0,1,6,5.34l.2,1.78a6,6,0,0,0,10.42,3.35,38.52,38.52,0,0,1,7.48-6.3q10.62-6.85,26.21-6.86a49.93,49.93,0,0,1,8.07.67l1.27.24a6,6,0,0,1,4.64,6.81l-2.17,13.66a6,6,0,0,1-7,4.95l-.61-.11a56.14,56.14,0,0,0-9.82-.68,33.68,33.68,0,0,0-16.4,4.44A35.1,35.1,0,0,0,777.15,194q-5.25,8.87-5.25,22.58v65.25a6,6,0,0,1-6,6H749.14A6,6,0,0,1,743.14,281.83Z"/><path class="cls-1" d="M902,150.71q19.62,0,34.68,8.34a58.49,58.49,0,0,1,23.53,24.06q8.46,15.72,8.46,37.5t-8.46,37.51a58.55,58.55,0,0,1-23.53,24.06q-15.06,8.34-34.68,8.34t-34.68-8.34a59.35,59.35,0,0,1-23.66-24.06q-8.61-15.74-8.61-37.51t8.61-37.5a59.28,59.28,0,0,1,23.66-24.06Q882.4,150.71,902,150.71Zm0,22.59q-12.1,0-20.57,5.51a35.3,35.3,0,0,0-13,16q-4.57,10.48-4.57,25.81,0,15.06,4.57,25.68t13,16.13q8.47,5.52,20.57,5.51t20.43-5.51q8.34-5.51,12.91-16.13t4.57-25.68q0-15.31-4.57-25.81t-12.91-16Q914.12,173.3,902,173.3Z"/><path class="cls-1" d="M1055.81,150.71q16.14,0,27.56,4.71a52.56,52.56,0,0,1,19.22,13.31,59,59,0,0,1,9.27,13.63,6,6,0,0,1-3.16,8.26l-15.6,6.18a6,6,0,0,1-7.75-3.29,34.53,34.53,0,0,0-9.24-13.36q-7.66-6.59-20-6.59-12.11,0-20.7,5.52a34.14,34.14,0,0,0-13,16q-4.44,10.49-4.44,25.81,0,15.06,4.57,25.54a34.21,34.21,0,0,0,13.18,15.87q8.6,5.37,20.43,5.37a37.68,37.68,0,0,0,15.86-3.09,29.21,29.21,0,0,0,11.16-8.87,30.58,30.58,0,0,0,4.49-8.36,6,6,0,0,1,7.59-3.7l14.23,4.84a6,6,0,0,1,3.55,8.12,55.8,55.8,0,0,1-9.43,15,53.38,53.38,0,0,1-19.76,14q-11.83,5-27.15,5-19.9,0-35.22-8.34a58.1,58.1,0,0,1-23.8-24.06q-8.46-15.74-8.47-37.51t8.47-37.5a58.25,58.25,0,0,1,23.66-24.06Q1036.46,150.71,1055.81,150.71Z"/><path class="cls-1" d="M1253.42,180.82a54.06,54.06,0,0,0-21-22q-13.71-8.07-33.34-8.07-19.09,0-34.15,8.34a58.47,58.47,0,0,0-23.52,24.06q-8.48,15.72-8.47,37.5t8.47,37.51a58.14,58.14,0,0,0,23.79,24.06q15.33,8.34,35.49,8.34a77.84,77.84,0,0,0,24.74-3.77A56.65,56.65,0,0,0,1245,275.86a53.85,53.85,0,0,0,9.6-10.88,6,6,0,0,0-2.47-8.7l-12.14-5.71a6,6,0,0,0-7.44,2.06,35.5,35.5,0,0,1-10.54,9.93q-8.34,5.1-21.77,5.1-12.11,0-21-5.37a35.26,35.26,0,0,1-13.71-15.87,48.57,48.57,0,0,1-3.28-10,6,6,0,0,1,5.88-7.21h86.18a6,6,0,0,0,6-5.5c0-.65.1-1.33.15-2,.18-2.87.27-5.91.27-9.14Q1260.68,194.81,1253.42,180.82Zm-88.19,14.12q4.57-10.62,13.18-16a37.26,37.26,0,0,1,20.16-5.38q15.87,0,25,9.82a33.57,33.57,0,0,1,8.09,16.71,6,6,0,0,1-5.9,7.08h-56.45a6,6,0,0,1-5.71-7.85Q1164.33,197,1165.23,194.94Z"/><path class="cls-1" d="M1340.79,290.52a85.82,85.82,0,0,1-36.83-7.8,64.57,64.57,0,0,1-22.85-17.38,6,6,0,0,1,.74-8.33l10.4-9a6,6,0,0,1,8.77,1,45.35,45.35,0,0,0,13.56,12.06q11.14,6.59,26.75,6.58,12.36,0,19.63-4.3t7.26-12.1a13.43,13.43,0,0,0-3.36-9q-3.37-3.9-12.78-6l-28.23-5.92q-21.51-4.29-30.65-13.84t-9.14-24.33a35.39,35.39,0,0,1,6.46-20.44q6.45-9.41,19-15.19t30-5.78q20.16,0,34.41,7.13a50.85,50.85,0,0,1,18.78,15.65,6,6,0,0,1-1.06,8l-10.5,8.79a5.92,5.92,0,0,1-8.65-1.22,33.06,33.06,0,0,0-11.74-10.3,43.84,43.84,0,0,0-20.7-5.25,45,45,0,0,0-14.79,2.16,21.17,21.17,0,0,0-9.41,5.91,13.21,13.21,0,0,0-3.23,8.87,12.89,12.89,0,0,0,4,9.41q4,4,14.51,6.19l30.65,6.45q19.37,3.76,27.29,12.77t7.93,21.91a39.24,39.24,0,0,1-6.72,22.72q-6.72,9.81-19.36,15.19T1340.79,290.52Z"/><path class="cls-1" d="M1475.76,290.52a85.83,85.83,0,0,1-36.84-7.8,64.57,64.57,0,0,1-22.85-17.38,6,6,0,0,1,.74-8.33l10.41-9a6,6,0,0,1,8.77,1,45.19,45.19,0,0,0,13.55,12.06q11.16,6.59,26.75,6.58,12.36,0,19.63-4.3t7.26-12.1a13.38,13.38,0,0,0-3.36-9q-3.37-3.9-12.77-6l-28.23-5.92q-21.51-4.29-30.65-13.84T1419,192.12a35.45,35.45,0,0,1,6.45-20.44q6.45-9.41,19-15.19t30-5.78q20.16,0,34.41,7.13a50.85,50.85,0,0,1,18.78,15.65,6,6,0,0,1-1.06,8l-10.49,8.79a5.93,5.93,0,0,1-8.66-1.22,33.06,33.06,0,0,0-11.74-10.3,43.81,43.81,0,0,0-20.7-5.25,45,45,0,0,0-14.79,2.16,21.23,21.23,0,0,0-9.41,5.91,13.2,13.2,0,0,0-3.22,8.87,12.88,12.88,0,0,0,4,9.41q4,4,14.52,6.19l30.65,6.45q19.35,3.76,27.28,12.77t7.94,21.91a39.25,39.25,0,0,1-6.73,22.72q-6.72,9.81-19.35,15.19T1475.76,290.52Z"/><path class="cls-3" d="M1716.11,197.85v84a6,6,0,0,1-6,6h-20.64a6,6,0,0,1-6-5.62l-.52-8.11a2.69,2.69,0,0,0-4.72-1.58q-15.62,18-46.56,18-24.2,0-42.88-10.62t-29.18-31.19q-10.49-20.57-10.48-49.34,0-28.49,10.75-49.06a75,75,0,0,1,30.65-31.59q19.9-11,47-11,30.39,0,48.93,10.75,16.14,9.36,26.38,28.69a6,6,0,0,1-3.1,8.38l-30.73,12.18a6,6,0,0,1-7.82-3.45A30.18,30.18,0,0,0,1661,150.44q-8.87-6.45-22-6.45-20.45,0-31.32,14t-10.89,41.14q0,55.92,43.55,55.92,16.39,0,26.48-7.53t10.09-21.78h0a2.7,2.7,0,0,0-2.69-2.69h-35.41a6,6,0,0,1-6-6V197.85a6,6,0,0,1,6-6h71.35A6,6,0,0,1,1716.11,197.85Z"/><path class="cls-3" d="M1874.73,159.4V281.83a6,6,0,0,1-6,6h-29.18a6,6,0,0,1-6-5.68l-.08-1.52a6,6,0,0,0-10.29-3.85q-13.32,13.74-37.18,13.74-21.51,0-33.74-11.43T1740,243.2V159.4a6,6,0,0,1,6-6h33.71a6,6,0,0,1,6,6v72.24q0,13.17,4.57,18.55t14,5.38q11.3,0,18-7.67t6.73-23.25V159.4a6,6,0,0,1,6-6h33.7A6,6,0,0,1,1874.73,159.4Z"/><path class="cls-3" d="M1987.92,287.83q-7.53,21.5-16.4,34.14t-21,18.15q-12.1,5.5-29.31,5.51-19.62,0-32.5-7.33a6,6,0,0,1-2.68-7l5.86-18.57a6,6,0,0,1,8.43-3.54,22.74,22.74,0,0,0,3.55,1.35,51.59,51.59,0,0,0,13.58,1.47q8.32,0,13.17-2.82c3.23-1.88,5.82-5.24,7.8-10.08l2.34-6.06a6,6,0,0,0-.07-4.52l-14.64-34.32-36.8-92.6a6,6,0,0,1,5.58-8.22h36.84a6,6,0,0,1,5.79,4.44L1957,230l.83,3.7a6,6,0,0,0,11.68.1l1.2-4.87,19.49-71.14a6,6,0,0,1,5.79-4.41h32.54a6,6,0,0,1,5.64,8.06Z"/><text class="cls-4" transform="translate(578.86 385.28)">Coaching pl<tspan class="cls-5" x="288.53" y="0">at</tspan><tspan class="cls-6" x="335.92" y="0">f</tspan><tspan x="354.64" y="0">orm</tspan><tspan class="cls-7" x="454.63" y="0"> </tspan><tspan class="cls-8" x="470.32" y="0">f</tspan><tspan x="489.04" y="0">o</tspan><tspan class="cls-9" x="519.52" y="0">r</tspan><tspan class="cls-10" x="538.56" y="0"> </tspan><tspan class="cls-11" x="554.09" y="0">w</tspan><tspan class="cls-12" x="596.26" y="0">eb e</tspan><tspan class="cls-13" x="703.38" y="0">n</tspan><tspan class="cls-14" x="734.49" y="0">thusiast</tspan></text></g></svg>