<svg xmlns="http://www.w3.org/2000/svg" viewBox="0 0 632.78 632.78"><defs><style>.cls-1{fill:#3d63aa;}.cls-2{fill:#00dbdd;}.cls-3{fill:#e16a64;}</style></defs><g id="V1"><path class="cls-1" d="M290.34,58.83C166.94,63.05,68.2,164.41,68.2,288.84a229,229,0,0,0,33.64,119.84,9.13,9.13,0,0,0,10.57,4,78.36,78.36,0,0,1,23.9-3.72c46.23,0,83.72,40.18,83.72,89.74v.07a9.18,9.18,0,0,0,6.29,8.75,229.82,229.82,0,0,0,72,11.49c124.43,0,225.79-98.73,230-222.13C532.89,164,423.21,54.28,290.34,58.83ZM261.68,417.56c-63.77,0-115.47-57.64-115.47-128.72s51.7-128.73,115.47-128.73,115.46,57.63,115.46,128.73S325.45,417.56,261.68,417.56Z"/><circle class="cls-2" cx="359" cy="505.03" r="64.56"/><circle class="cls-2" cx="501.77" cy="421.92" r="64.56"/><circle class="cls-3" cx="472.06" cy="534.74" r="29.71"/></g></svg>